<?xml version="1.0" standalone="no"?>
<!DOCTYPE svg PUBLIC "-//W3C//DTD SVG 1.1//EN" "http://www.w3.org/Graphics/SVG/1.1/DTD/svg11.dtd">
<!--Generator: Xara Designer (www.xara.com), SVG filter version: 6.4.0.3-->
<svg fill="none" fill-rule="evenodd" stroke="black" stroke-width="0.501" stroke-linejoin="bevel" stroke-miterlimit="10" font-family="Times New Roman" font-size="16" style="font-variant-ligatures:none" xmlns:xlink="http://www.w3.org/1999/xlink" xmlns="http://www.w3.org/2000/svg" version="1.1" overflow="visible" width="225pt" height="49.981pt" viewBox="149.161 -370.516 225 49.981">
 <defs>
	</defs>
 <g id="Layer 1" transform="scale(1 -1)">
  <path d="M 159.226,370.516 L 169.032,370.516 L 179.097,360.364 L 168.945,360.364 L 169.032,350.385 L 159.313,360.364 Z" fill="#1c3664" stroke="none" stroke-width="0.868" fill-rule="nonzero" stroke-linejoin="miter" marker-start="none" marker-end="none"/>
  <path d="M 149.161,330.688 L 149.161,340.406 L 159.313,350.472 L 159.313,340.406 L 169.292,340.493 L 159.313,330.775 Z" fill="#1c3664" stroke="none" stroke-width="0.868" fill-rule="nonzero" stroke-linejoin="miter" marker-start="none" marker-end="none"/>
  <path d="M 188.902,320.535 L 179.097,320.535 L 169.032,330.601 L 179.097,330.601 L 179.097,340.58 L 188.729,330.601 Z" fill="#1c3664" stroke="none" stroke-width="0.868" fill-rule="nonzero" stroke-linejoin="miter" marker-start="none" marker-end="none"/>
  <path d="M 199.141,360.451 L 199.141,350.645 L 189.076,340.58 L 189.076,350.732 L 179.01,350.645 L 189.076,360.364 Z" fill="#1c3664" stroke="none" stroke-width="0.868" fill-rule="nonzero" stroke-linejoin="miter" marker-start="none" marker-end="none"/>
  <path d="M 214.066,349.083 L 207.298,349.083 L 207.298,351.86 L 223.958,351.86 L 223.958,349.083 L 217.19,349.083 L 217.19,329.994 L 214.066,329.994 L 214.066,349.083 Z" fill="#1c3664" stroke="none" stroke-width="0.868" fill-rule="nonzero" stroke-linejoin="miter" marker-start="none" marker-end="none"/>
  <rect x="-1.562" y="-10.89" width="3.124" height="21.78" rx="0" ry="0" transform="matrix(1 0 0 1 228.644 340.97)" fill="#1c3664" fill-rule="nonzero" stroke-linejoin="miter" stroke="none" stroke-width="0.868"/>
  <path d="M 254.415,348.563 C 252.853,349.17 251.986,349.431 250.337,349.431 C 248.602,349.431 246.519,348.823 246.519,346.567 C 246.519,342.402 255.89,343.357 255.89,336.154 C 255.89,331.469 252.333,329.647 247.907,329.647 C 246.345,329.647 244.87,330.08 243.482,330.514 L 243.829,333.378 C 244.87,332.944 246.779,332.336 248.341,332.336 C 250.163,332.336 252.593,333.378 252.593,335.894 C 252.593,340.753 243.222,339.452 243.222,346.22 C 243.222,350.125 246.259,352.12 250.25,352.12 C 251.725,352.12 253.374,351.86 254.936,351.34 L 254.415,348.563 Z" fill="#1c3664" stroke="none" stroke-width="0.868" fill-rule="nonzero" stroke-linejoin="miter" marker-start="none" marker-end="none"/>
  <path d="M 266.824,346.307 C 271.683,346.307 274.893,342.836 274.893,337.977 C 274.893,333.378 271.596,329.647 266.824,329.647 C 262.051,329.647 258.667,333.465 258.667,337.977 C 258.754,342.836 261.964,346.307 266.824,346.307 Z M 266.824,332.076 C 270.295,332.076 271.77,335.2 271.77,338.063 C 271.77,341.1 269.947,344.051 266.824,344.051 C 263.7,344.051 261.791,341.1 261.791,338.063 C 261.878,335.2 263.44,332.076 266.824,332.076 Z" fill="#1c3664" stroke="none" stroke-width="0.868" fill-rule="nonzero" stroke-linejoin="miter" marker-start="none" marker-end="none"/>
  <rect x="-1.475" y="-11.7145" width="2.95" height="23.429" rx="0" ry="0" transform="matrix(1 0 0 1 280.447 341.794)" fill="#1c3664" fill-rule="nonzero" stroke-linejoin="miter" stroke="none" stroke-width="0.868"/>
  <path d="M 301.185,330.08 L 298.322,330.08 L 298.322,332.597 L 298.235,332.597 C 297.367,330.775 295.198,329.733 293.029,329.733 C 288.864,329.733 287.042,332.336 287.042,336.588 L 287.042,346.046 L 289.992,346.046 L 289.992,337.803 C 289.992,334.072 290.773,332.25 293.376,332.076 C 296.76,332.076 298.235,334.766 298.235,338.671 L 298.235,346.046 L 301.185,346.046 L 301.185,330.08 Z" fill="#1c3664" stroke="none" stroke-width="0.868" fill-rule="nonzero" stroke-linejoin="miter" marker-start="none" marker-end="none"/>
  <path d="M 315.156,343.617 L 310.904,343.617 L 310.904,334.94 C 310.904,333.117 312.032,332.076 313.334,332.076 C 314.201,332.076 314.895,332.336 315.329,332.597 L 315.329,330.08 C 314.635,329.907 313.767,329.647 312.813,329.647 C 309.776,329.647 307.867,331.122 307.867,334.245 L 307.867,343.53 L 304.309,343.53 L 304.309,345.873 L 307.867,345.873 L 307.867,349.517 L 310.817,350.472 L 310.817,345.873 L 315.069,345.873 L 315.069,343.617 Z" fill="#1c3664" stroke="none" stroke-width="0.868" fill-rule="nonzero" stroke-linejoin="miter" marker-start="none" marker-end="none"/>
  <path d="M 322.358,349.517 L 319.06,349.517 L 319.06,352.815 L 322.358,352.815 L 322.358,349.517 Z M 319.234,345.96 L 322.184,345.96 L 322.184,329.994 L 319.234,329.994 L 319.234,345.96 Z" fill="#1c3664" stroke="none" stroke-width="0.868" fill-rule="nonzero" stroke-linejoin="miter" marker-start="none" marker-end="none"/>
  <path d="M 334.246,346.307 C 339.105,346.307 342.315,342.836 342.315,337.977 C 342.315,333.378 339.018,329.647 334.246,329.647 C 329.473,329.647 326.089,333.465 326.089,337.977 C 326.089,342.836 329.386,346.307 334.246,346.307 Z M 334.246,332.076 C 337.716,332.076 339.192,335.2 339.192,338.063 C 339.192,341.1 337.369,344.051 334.246,344.051 C 331.122,344.051 329.213,341.1 329.213,338.063 C 329.213,335.2 330.775,332.076 334.246,332.076 Z" fill="#1c3664" stroke="none" stroke-width="0.868" fill-rule="nonzero" stroke-linejoin="miter" marker-start="none" marker-end="none"/>
  <path d="M 346.133,345.96 L 348.997,345.96 L 348.997,343.443 L 349.084,343.443 C 349.951,345.266 352.121,346.307 354.29,346.307 C 358.455,346.307 360.277,343.704 360.277,339.452 L 360.277,329.994 L 357.327,329.994 L 357.327,338.324 C 357.327,342.055 356.546,343.877 353.943,344.051 C 350.559,344.051 349.084,341.361 349.084,337.456 L 349.084,330.08 L 346.133,330.08 L 346.133,345.96 Z" fill="#1c3664" stroke="none" stroke-width="0.868" fill-rule="nonzero" stroke-linejoin="miter" marker-start="none" marker-end="none"/>
  <path d="M 364.355,333.204 C 365.484,332.423 367.132,332.076 368,332.076 C 369.301,332.076 371.037,332.597 371.037,334.332 C 371.037,337.196 364.095,337.022 364.095,341.448 C 364.095,344.745 366.525,346.394 369.735,346.394 C 371.124,346.394 372.252,346.133 373.38,345.786 L 373.119,343.183 C 372.425,343.617 370.69,343.964 369.996,343.964 C 368.521,343.964 367.219,343.357 367.219,342.055 C 367.219,338.844 374.161,339.712 374.161,334.679 C 374.161,331.295 371.471,329.733 368.607,329.733 C 367.132,329.733 365.57,329.907 364.269,330.601 L 364.355,333.204 Z" fill="#1c3664" stroke="none" stroke-width="0.868" fill-rule="nonzero" stroke-linejoin="miter" marker-start="none" marker-end="none"/>
 </g>
</svg>
